<svg xmlns="http://www.w3.org/2000/svg" width="2479" height="1748" fill="none" viewBox="0 0 2479 1748"><g filter="url(#filter0_f_1715_55804)" opacity=".4"><path fill="url(#paint0_linear_1715_55804)" d="M1935.02 1106.93C2035.48 1067.86 2149.73 979.688 2198.71 883.671C2354.69 577.914 1534.42 497.088 1248.83 687.483C1005.78 849.514 643.022 1236.84 890.247 1392.43C1047.03 1491.09 1252.25 1532.02 1400.85 1421.42C1489.05 1355.77 1549.09 1202.56 1648.62 1155.85C1726.48 1119.31 1854.86 1138.1 1935.02 1106.93Z"/><path fill="url(#paint1_radial_1715_55804)" d="M1935.02 1106.93C2035.48 1067.86 2149.73 979.688 2198.71 883.671C2354.69 577.914 1534.42 497.088 1248.83 687.483C1005.78 849.514 643.022 1236.84 890.247 1392.43C1047.03 1491.09 1252.25 1532.02 1400.85 1421.42C1489.05 1355.77 1549.09 1202.56 1648.62 1155.85C1726.48 1119.31 1854.86 1138.1 1935.02 1106.93Z"/><path fill="url(#paint2_radial_1715_55804)" d="M1935.02 1106.93C2035.48 1067.86 2149.73 979.688 2198.71 883.671C2354.69 577.914 1534.42 497.088 1248.83 687.483C1005.78 849.514 643.022 1236.84 890.247 1392.43C1047.03 1491.09 1252.25 1532.02 1400.85 1421.42C1489.05 1355.77 1549.09 1202.56 1648.62 1155.85C1726.48 1119.31 1854.86 1138.1 1935.02 1106.93Z"/></g><g filter="url(#filter1_f_1715_55804)" opacity=".54"><path fill="url(#paint3_linear_1715_55804)" d="M1808.7 976.636C1837.25 965.534 1869.72 940.478 1883.64 913.192C1927.96 826.305 1694.87 803.337 1613.71 857.442C1544.64 903.486 1441.56 1013.55 1511.81 1057.77C1556.36 1085.8 1614.68 1097.43 1656.91 1066C1681.97 1047.35 1699.04 1003.81 1727.32 990.537C1749.44 980.153 1785.93 985.494 1808.7 976.636Z"/><path fill="url(#paint4_radial_1715_55804)" d="M1808.7 976.636C1837.25 965.534 1869.72 940.478 1883.64 913.192C1927.96 826.305 1694.87 803.337 1613.71 857.442C1544.64 903.486 1441.56 1013.55 1511.81 1057.77C1556.36 1085.8 1614.68 1097.43 1656.91 1066C1681.97 1047.35 1699.04 1003.81 1727.32 990.537C1749.44 980.153 1785.93 985.494 1808.7 976.636Z"/><path fill="url(#paint5_radial_1715_55804)" d="M1808.7 976.636C1837.25 965.534 1869.72 940.478 1883.64 913.192C1927.96 826.305 1694.87 803.337 1613.71 857.442C1544.64 903.486 1441.56 1013.55 1511.81 1057.77C1556.36 1085.8 1614.68 1097.43 1656.91 1066C1681.97 1047.35 1699.04 1003.81 1727.32 990.537C1749.44 980.153 1785.93 985.494 1808.7 976.636Z"/></g><g filter="url(#filter2_f_1715_55804)" opacity=".6"><path fill="url(#paint6_linear_1715_55804)" d="M710.944 468.671C751.051 453.075 796.66 417.873 816.216 379.541C878.487 257.476 551.018 225.209 437.001 301.219C339.971 365.905 195.152 520.534 293.849 582.648C356.439 622.037 438.368 638.375 497.692 594.22C532.902 568.014 556.875 506.849 596.609 488.2C627.691 473.612 678.944 481.115 710.944 468.671Z"/><path fill="url(#paint7_radial_1715_55804)" d="M710.944 468.671C751.051 453.075 796.66 417.873 816.216 379.541C878.487 257.476 551.018 225.209 437.001 301.219C339.971 365.905 195.152 520.534 293.849 582.648C356.439 622.037 438.368 638.375 497.692 594.22C532.902 568.014 556.875 506.849 596.609 488.2C627.691 473.612 678.944 481.115 710.944 468.671Z"/><path fill="url(#paint8_radial_1715_55804)" d="M710.944 468.671C751.051 453.075 796.66 417.873 816.216 379.541C878.487 257.476 551.018 225.209 437.001 301.219C339.971 365.905 195.152 520.534 293.849 582.648C356.439 622.037 438.368 638.375 497.692 594.22C532.902 568.014 556.875 506.849 596.609 488.2C627.691 473.612 678.944 481.115 710.944 468.671Z"/></g><defs><filter id="filter0_f_1715_55804" width="1930.71" height="1422.39" x="547.541" y="325.144" color-interpolation-filters="sRGB" filterUnits="userSpaceOnUse"><feFlood flood-opacity="0" result="BackgroundImageFix"/><feBlend in="SourceGraphic" in2="BackgroundImageFix" mode="normal" result="shape"/><feGaussianBlur result="effect1_foregroundBlur_1715_55804" stdDeviation="130"/></filter><filter id="filter1_f_1715_55804" width="1020.88" height="876.433" x="1178.31" y="518.36" color-interpolation-filters="sRGB" filterUnits="userSpaceOnUse"><feFlood flood-opacity="0" result="BackgroundImageFix"/><feBlend in="SourceGraphic" in2="BackgroundImageFix" mode="normal" result="shape"/><feGaussianBlur result="effect1_foregroundBlur_1715_55804" stdDeviation="155"/></filter><filter id="filter2_f_1715_55804" width="1083.19" height="880.254" x=".831" y=".362" color-interpolation-filters="sRGB" filterUnits="userSpaceOnUse"><feFlood flood-opacity="0" result="BackgroundImageFix"/><feBlend in="SourceGraphic" in2="BackgroundImageFix" mode="normal" result="shape"/><feGaussianBlur result="effect1_foregroundBlur_1715_55804" stdDeviation="130"/></filter><linearGradient id="paint0_linear_1715_55804" x1="509.672" x2="1682.7" y1="309.963" y2="107.164" gradientUnits="userSpaceOnUse"><stop stop-color="#F2357A"/><stop offset="1" stop-color="#9D66E1"/></linearGradient><radialGradient id="paint1_radial_1715_55804" cx="0" cy="0" r="1" gradientTransform="translate(838.354 1342.79) rotate(-17.0721) scale(1007.66 1083.36)" gradientUnits="userSpaceOnUse"><stop stop-color="#F28952"/><stop offset="1" stop-color="#9E67E1" stop-opacity="0"/></radialGradient><radialGradient id="paint2_radial_1715_55804" cx="0" cy="0" r="1" gradientTransform="translate(2141.57 761.273) rotate(156.786) scale(805.731 877.078)" gradientUnits="userSpaceOnUse"><stop stop-color="#497FF9"/><stop offset="1" stop-color="#9E67E1" stop-opacity="0"/></radialGradient><linearGradient id="paint3_linear_1715_55804" x1="1403.66" x2="1737" y1="750.162" y2="692.532" gradientUnits="userSpaceOnUse"><stop stop-color="#F2357A"/><stop offset="1" stop-color="#9D66E1"/></linearGradient><radialGradient id="paint4_radial_1715_55804" cx="0" cy="0" r="1" gradientTransform="translate(1497.07 1043.66) rotate(-17.0721) scale(286.347 307.858)" gradientUnits="userSpaceOnUse"><stop stop-color="#F28952"/><stop offset="1" stop-color="#9E67E1" stop-opacity="0"/></radialGradient><radialGradient id="paint5_radial_1715_55804" cx="0" cy="0" r="1" gradientTransform="translate(1867.4 878.411) rotate(156.786) scale(228.965 249.239)" gradientUnits="userSpaceOnUse"><stop stop-color="#497FF9"/><stop offset="1" stop-color="#9E67E1" stop-opacity="0"/></radialGradient><linearGradient id="paint6_linear_1715_55804" x1="141.916" x2="610.215" y1="150.504" y2="69.543" gradientUnits="userSpaceOnUse"><stop stop-color="#F2357A"/><stop offset="1" stop-color="#9D66E1"/></linearGradient><radialGradient id="paint7_radial_1715_55804" cx="0" cy="0" r="1" gradientTransform="translate(273.133 562.83) rotate(-17.0721) scale(402.279 432.5)" gradientUnits="userSpaceOnUse"><stop stop-color="#F28952"/><stop offset="1" stop-color="#9E67E1" stop-opacity="0"/></radialGradient><radialGradient id="paint8_radial_1715_55804" cx="0" cy="0" r="1" gradientTransform="translate(793.403 330.677) rotate(156.786) scale(321.665 350.148)" gradientUnits="userSpaceOnUse"><stop stop-color="#497FF9"/><stop offset="1" stop-color="#9E67E1" stop-opacity="0"/></radialGradient></defs></svg>